<svg xmlns="http://www.w3.org/2000/svg" xml:space="preserve" width="512" height="512" viewBox="0 0 135.5 135.5"><path d="M0 0h135.5v135.5H0z"/><path fill="#fff" d="M61.1 28.2s15.7 5.4 25.2 5.6c9.4.3 28.3-2.3 28.3-2.3S113 45.6 109.4 52a45 45 0 0 1-20.5 17c-10.3 5-23.3 4.5-23.3 4.5s.5 5.3-2.4 12.9c-2.8 7.3-8.6 14.1-12 14.3S36.9 97.4 29.6 92s-14.8-8.5-14.8-8.5 18.4-4 31.2-23.8a103 103 0 0 0 15-31.5"/><path fill="#fff" d="M68 75.9s-.1 7-3 13.3c-2.7 6.4-10 12.2-10 12.2s16.3 0 29.8-13.5 22.5-30.3 22.5-30.3-8.8 10.7-19.5 14.6c-11 4-19.7 3.7-19.7 3.7"/></svg>